# xmcd CD database file
#
# Track frame offsets:
#	150
#	10692
#	27838
#	41296
#	57843
#	76713
#	95782
#	113294
#	132944
#	144632
#
# Disc length: 2124 seconds
#
# Revision: 0
# Processed by: cddbd v1.5.1PL0 Copyright (c) Steve Scherf et al.
# Submitted via: CDex 1.51
#
DISCID=6f084a0a
DTITLE=Leslie Feist - Let It Die
DYEAR=2004
DGENRE=Jazz
TTITLE0=Gatekeeper
TTITLE1=Mushaboom
TTITLE2=Let It Die
TTITLE3=One Evening
TTITLE4=Leisure Suite
TTITLE5=Lonely Lonely
TTITLE6=Secret Heart
TTITLE7=Inside And Out
TTITLE8=Tout Doucement
TTITLE9=Now At Last
EXTD=YEAR: 2004
EXTT0=
EXTT1=
EXTT2=
EXTT3=
EXTT4=
EXTT5=
EXTT6=
EXTT7=
EXTT8=
EXTT9=
PLAYORDER=
